<svg width="173" height="97" viewBox="0 0 173 97" fill="none" xmlns="http://www.w3.org/2000/svg">
<g clip-path="url(#clip0_1565_1011)">
<path opacity="0.25" d="M103.035 125.999C152.14 125.999 191.947 116.73 191.947 105.296C191.947 93.8627 152.14 84.5938 103.035 84.5938C53.9309 84.5938 14.124 93.8627 14.124 105.296C14.124 116.73 53.9309 125.999 103.035 125.999Z" fill="#042030"/>
<path d="M172.667 5.39062L103.035 29.2023L33.3329 5.39062L0 53.862L103.035 89.1203L206 53.862L172.667 5.39062Z" fill="#34A852"/>
<path opacity="0.45" d="M12.1465 51.8837L97.5973 84.5983L68.2192 55.4872C68.2192 55.4872 19.9854 43.8286 12.1465 51.8837Z" fill="#34A852"/>
<path opacity="0.45" d="M193.924 51.8837L108.473 84.5983L137.851 55.4872C137.781 55.4872 186.014 43.8286 193.924 51.8837Z" fill="#34A852"/>
<path d="M103.035 89.1177L0 53.8594V58.4522L103.035 93.7105L206 58.4522V53.8594L103.035 89.1177Z" fill="#53E88B"/>
<path d="M48.1631 110.317L60.098 79.0156L98.5155 92.158L48.1631 110.317Z" fill="#34A852"/>
<path opacity="0.45" d="M51.4824 101.273L98.5156 92.158L60.0981 79.0156L51.4824 101.273Z" fill="#3B1E77"/>
<path d="M103.035 90.5312L48.1631 110.316L52.2591 114.626L103.035 96.5371L153.741 114.626L157.907 110.316L103.035 90.5312Z" fill="#53E88B"/>
<path d="M157.907 110.317L145.902 79.0156L107.484 92.158L157.907 110.317Z" fill="#34A852"/>
<path opacity="0.45" d="M154.518 101.273L107.484 92.158L145.902 79.0156L154.518 101.273Z" fill="#3B1E77"/>
<path d="M103.035 96.5366C105.102 96.5366 106.778 94.86 106.778 92.7917C106.778 90.7235 105.102 89.0469 103.035 89.0469C100.968 89.0469 99.292 90.7235 99.292 92.7917C99.292 94.86 100.968 96.5366 103.035 96.5366Z" fill="white" fill-opacity="0.5"/>
<path d="M169.701 5.39062L103.035 38.5999L36.3698 5.39062C33.3331 9.41814 8.89844 50.1878 8.89844 50.1878C9.18093 50.1878 9.39279 50.2584 9.67527 50.2584C70.9738 56.4057 87.9935 75.6953 93.6431 80.3587C99.2927 85.0928 103.106 84.5982 103.106 84.5982C103.106 84.5982 106.919 85.0928 112.569 80.3587C118.219 75.6953 135.238 56.4057 196.537 50.2584C196.819 50.2584 197.031 50.1878 197.314 50.1878C197.172 50.1878 172.667 9.48878 169.701 5.39062Z" fill="#F5B304"/>
<path d="M197.172 50.1875C196.89 50.1875 196.678 50.2581 196.396 50.2581C135.097 56.4054 118.077 75.695 112.428 80.3584C106.778 85.0925 102.965 84.5979 102.965 84.5979C102.965 84.5979 99.1511 85.0925 93.5015 80.3584C87.8518 75.695 70.8323 56.4054 9.53364 50.2581C9.25116 50.2581 9.0393 50.1875 8.75682 50.1875C8.26248 50.9647 8.75682 51.53 8.75682 51.53C70.691 57.5359 87.1456 76.8962 92.7952 81.6303C98.4449 86.2937 102.894 85.9404 102.894 85.9404C102.894 85.9404 107.343 86.2937 112.993 81.6303C118.642 76.9669 135.097 57.6066 197.031 51.53C197.172 51.53 197.667 50.9647 197.172 50.1875Z" fill="#53E88B"/>
<path d="M167.159 1.50062C133.049 -6.69571 102.965 21.3555 102.965 21.3555C102.965 21.3555 72.88 -6.69571 38.7703 1.50062C38.7703 1.50062 29.0953 16.3388 15.748 41.5637C15.748 41.5637 82.9081 49.1241 102.965 77.3166C123.021 49.1241 190.181 41.5637 190.181 41.5637C176.834 16.3388 167.159 1.50062 167.159 1.50062Z" fill="#F5EFFB"/>
<path d="M190.181 41.5625C190.181 41.5625 123.021 49.1229 102.965 77.3154C82.9792 49.1229 15.8191 41.5625 15.8191 41.5625C15.8191 41.5625 15.8191 43.8235 12.0762 48.275C12.0762 48.275 73.0217 52.6558 95.1965 77.9514C100.422 83.8866 102.965 83.1801 102.965 83.1801C102.965 83.1801 105.578 83.8866 110.733 77.9514C132.837 52.6558 193.853 48.275 193.853 48.275C190.181 43.7529 190.181 41.5625 190.181 41.5625Z" fill="#DFCBF4"/>
<path d="M163.345 4.46582C163.345 4.46582 137.851 -2.03472 102.965 25.0273C68.1485 -1.96407 42.5839 4.46582 42.5839 4.46582L25.3525 37.9578C77.7529 41.5613 102.965 68.058 102.965 68.058C102.965 68.058 128.176 41.5613 180.577 37.9578L163.345 4.46582ZM103.035 64.8784C103.035 64.8784 79.4478 40.7134 29.4485 35.9793L43.9257 5.87898C43.9257 5.87898 68.996 1.00358 103.035 26.5818C137.074 1.00358 162.145 5.87898 162.145 5.87898L176.622 35.9793C126.623 40.7134 103.035 64.8784 103.035 64.8784Z" fill="#34A852"/>
<path opacity="0.2" d="M109.462 50.2464C118.878 43.2984 148.303 27.9229 168.077 30.0426" stroke="#863ED5" stroke-width="3" stroke-linecap="round"/>
<path opacity="0.2" d="M109.462 30.7539C117.819 24.2072 139.546 11.3801 159.602 12.4453" stroke="#863ED5" stroke-width="3" stroke-linecap="round"/>
<path opacity="0.2" d="M109.462 40.6435C118.525 33.5932 142.088 19.7794 163.84 20.9266" stroke="#863ED5" stroke-width="3" stroke-linecap="round"/>
<path opacity="0.2" d="M97.4558 50.2464C88.0397 43.2984 58.6145 27.9229 38.8408 30.0426" stroke="#863ED5" stroke-width="3" stroke-linecap="round"/>
<path opacity="0.2" d="M97.456 30.7539C89.0992 24.2072 67.3717 11.3801 47.3154 12.4453" stroke="#863ED5" stroke-width="3" stroke-linecap="round"/>
<path opacity="0.2" d="M97.4559 40.6435C88.3929 33.5932 64.8292 19.7794 43.0781 20.9266" stroke="#863ED5" stroke-width="3" stroke-linecap="round"/>
<path d="M103.035 21.3543C103.035 21.3543 103.742 18.8813 105.083 19.5879C105.083 19.5879 104.236 59.6509 105.648 75.2664C106.001 79.1526 109.391 84.4519 110.733 86.4303H108.967L108.473 88.0555C108.473 88.0555 103.247 79.2232 103.035 75.761C101.976 60.2162 102.541 25.0992 103.035 21.3543Z" fill="#54DAF5"/>
</g>
<defs>
<clipPath id="clip0_1565_1011">
<rect width="173" height="97" fill="white"/>
</clipPath>
</defs>
</svg>
