<svg width="314" height="365" viewBox="0 0 314 365" fill="none" xmlns="http://www.w3.org/2000/svg">
<g clip-path="url(#clip0_1565_943)">
<g style="mix-blend-mode:soft-light" opacity="0.5">
<path d="M-14 143.07H92.3C92.3 143.07 84.7 119.77 71.9 123.17C59.1 126.47 59.6 129.37 59.6 129.37C59.6 129.37 55.8 109.47 38.7 112.27C21.6 115.07 17.8 128.87 17.8 128.87C17.8 128.87 6.90001 124.57 2.10001 128.87C-2.59999 133.17 -1.69998 135.47 -1.69998 135.47C-1.69998 135.47 -12.1 130.77 -14 143.07Z" fill="white"/>
</g>
<g style="mix-blend-mode:soft-light" opacity="0.8">
<path d="M267 100.216C265.8 96.8161 263.1 90.9161 258.9 89.5161C252.9 87.5161 244 94.1161 244 94.1161C244 94.1161 239.7 78.6161 225.3 78.0161C210.9 77.4161 213.5 93.8161 213.5 93.8161C213.5 93.8161 209.8 92.7161 202.3 90.4161C194.8 88.1161 192.2 95.0161 192.2 95.0161C187.5 93.3161 185.6 97.8161 185 100.216H267Z" fill="white"/>
</g>
<path d="M43.7 0C43.7 0 43.5 2.6 41 2.9C43.5 3.2 43.7 5.8 43.7 5.8C43.7 5.8 43.9 3.2 46.4 2.9C43.9 2.7 43.7 0 43.7 0Z" fill="#FFD08A"/>
<path d="M177.7 41C177.7 41 177.5 43.6 175 43.9C177.5 44.2 177.7 46.8 177.7 46.8C177.7 46.8 177.9 44.2 180.4 43.9C177.9 43.7 177.7 41 177.7 41Z" fill="#FFD08A"/>
<path d="M79.7 31C79.7 31 79.5 33.6 77 33.9C79.5 34.2 79.7 36.8 79.7 36.8C79.7 36.8 79.9 34.2 82.4 33.9C79.9 33.7 79.7 31 79.7 31Z" fill="#FFD08A"/>
<path d="M299.7 100C299.7 100 299.5 102.6 297 102.9C299.5 103.2 299.7 105.8 299.7 105.8C299.7 105.8 299.9 103.2 302.4 102.9C299.8 102.7 299.7 100 299.7 100Z" fill="#FFD08A"/>
<path d="M183.3 159.602C183.3 159.602 183.1 162.202 180.6 162.502C183.1 162.802 183.3 165.402 183.3 165.402C183.3 165.402 183.5 162.802 186 162.502C183.4 162.302 183.3 159.602 183.3 159.602Z" fill="#FFD08A"/>
<path d="M139.1 70C139.1 70 138.6 77 132 77.6C138.6 78.3 139.1 85.2 139.1 85.2C139.1 85.2 139.6 78.2 146.2 77.6C139.6 77 139.1 70 139.1 70Z" fill="#FFD08A"/>
<path d="M15.1 58.7031C15.1 58.7031 14.6 65.7031 8 66.3031C14.6 67.0031 15.1 73.9031 15.1 73.9031C15.1 73.9031 15.6 66.9031 22.2 66.3031C15.6 65.7031 15.1 58.7031 15.1 58.7031Z" fill="#FFD08A"/>
<path d="M132.2 0C132.2 0 131.8 5.1 127 5.6C131.8 6.1 132.2 11.2 132.2 11.2C132.2 11.2 132.6 6.1 137.4 5.6C132.6 5 132.2 0 132.2 0Z" fill="#FFD08A"/>
<path d="M58.6 95C58.6 95 58.3 99.5 54 100C58.3 100.4 58.6 105 58.6 105C58.6 105 58.9 100.5 63.2 100C59 99.5 58.6 95 58.6 95Z" fill="#FFD08A"/>
<path d="M99.5004 194.898C99.5004 194.898 99.2004 199.398 94.9004 199.898C99.2004 200.298 99.5004 204.898 99.5004 204.898C99.5004 204.898 99.8004 200.398 104.1 199.898C99.8004 199.398 99.5004 194.898 99.5004 194.898Z" fill="#FFD08A"/>
<g style="mix-blend-mode:soft-light" opacity="0.5">
<path d="M237.8 168.5H344.1C344.1 168.5 336.5 145.2 323.7 148.6C310.9 151.9 311.4 154.8 311.4 154.8C311.4 154.8 307.6 134.9 290.5 137.7C273.4 140.5 269.6 154.3 269.6 154.3C269.6 154.3 258.7 150 253.9 154.3C249.2 158.6 250.1 160.9 250.1 160.9C250.1 160.9 239.7 156.2 237.8 168.5Z" fill="white"/>
</g>
<path opacity="0.25" d="M158.9 364.803C228.433 364.803 284.8 351.685 284.8 335.503C284.8 319.321 228.433 306.203 158.9 306.203C89.3674 306.203 33 319.321 33 335.503C33 351.685 89.3674 364.803 158.9 364.803Z" fill="#042030"/>
<path d="M257.5 194.102L158.9 227.802L60.2 194.102L13 262.702L158.9 312.602L304.7 262.702L257.5 194.102Z" fill="#34A852"/>
<path opacity="0.45" d="M30.2002 259.898L151.2 306.198L109.6 264.998C109.6 264.998 41.3002 248.498 30.2002 259.898Z" fill="#34A852"/>
<path opacity="0.45" d="M287.6 259.898L166.6 306.198L208.2 264.998C208.1 264.998 276.4 248.498 287.6 259.898Z" fill="#34A852"/>
<path d="M158.9 312.603L13 262.703V269.203L158.9 319.103L304.7 269.203V262.703L158.9 312.603Z" fill="#53E88B"/>
<path d="M81.2002 342.597L98.1002 298.297L152.5 316.897L81.2002 342.597Z" fill="#34A852"/>
<path opacity="0.45" d="M85.9004 329.797L152.5 316.897L98.1004 298.297L85.9004 329.797Z" fill="#3B1E77"/>
<path d="M158.9 314.602L81.2002 342.602L87.0002 348.702L158.9 323.102L230.7 348.702L236.6 342.602L158.9 314.602Z" fill="#53E88B"/>
<path d="M236.6 342.597L219.6 298.297L165.2 316.897L236.6 342.597Z" fill="#34A852"/>
<path opacity="0.45" d="M231.8 329.797L165.2 316.897L219.6 298.297L231.8 329.797Z" fill="#3B1E77"/>
<path d="M158.9 323.1C161.827 323.1 164.2 320.727 164.2 317.8C164.2 314.873 161.827 312.5 158.9 312.5C155.973 312.5 153.6 314.873 153.6 317.8C153.6 320.727 155.973 323.1 158.9 323.1Z" fill="white" fill-opacity="0.5"/>
<path d="M253.3 194.102L158.9 241.102L64.4996 194.102C60.1996 199.802 25.5996 257.502 25.5996 257.502C25.9996 257.502 26.2996 257.602 26.6996 257.602C113.5 266.302 137.6 293.602 145.6 300.202C153.6 306.902 159 306.202 159 306.202C159 306.202 164.4 306.902 172.4 300.202C180.4 293.602 204.5 266.302 291.3 257.602C291.7 257.602 292 257.502 292.4 257.502C292.2 257.502 257.5 199.902 253.3 194.102Z" fill="#F5B304"/>
<path d="M292.2 257.5C291.8 257.5 291.5 257.6 291.1 257.6C204.3 266.3 180.2 293.6 172.2 300.2C164.2 306.9 158.8 306.2 158.8 306.2C158.8 306.2 153.4 306.9 145.4 300.2C137.4 293.6 113.3 266.3 26.5 257.6C26.1 257.6 25.8 257.5 25.4 257.5C24.7 258.6 25.4 259.4 25.4 259.4C113.1 267.9 136.4 295.3 144.4 302C152.4 308.6 158.7 308.1 158.7 308.1C158.7 308.1 165 308.6 173 302C181 295.4 204.3 268 292 259.4C292.2 259.4 292.9 258.6 292.2 257.5Z" fill="#53E88B"/>
<path d="M249.7 188.6C201.4 177 158.8 216.7 158.8 216.7C158.8 216.7 116.2 177 67.8998 188.6C67.8998 188.6 54.1998 209.6 35.2998 245.3C35.2998 245.3 130.4 256 158.8 295.9C187.2 256 282.3 245.3 282.3 245.3C263.4 209.6 249.7 188.6 249.7 188.6Z" fill="#F5EFFB"/>
<path d="M282.3 245.297C282.3 245.297 187.2 255.997 158.8 295.897C130.5 255.997 35.3996 245.297 35.3996 245.297C35.3996 245.297 35.3996 248.497 30.0996 254.797C30.0996 254.797 116.4 260.997 147.8 296.797C155.2 305.197 158.8 304.197 158.8 304.197C158.8 304.197 162.5 305.197 169.8 296.797C201.1 260.997 287.5 254.797 287.5 254.797C282.3 248.397 282.3 245.297 282.3 245.297Z" fill="#DFCBF4"/>
<path d="M244.3 192.797C244.3 192.797 208.2 183.597 158.8 221.897C109.5 183.697 73.3004 192.797 73.3004 192.797L48.9004 240.197C123.1 245.297 158.8 282.797 158.8 282.797C158.8 282.797 194.5 245.297 268.7 240.197L244.3 192.797ZM158.9 278.297C158.9 278.297 125.5 244.097 54.7004 237.397L75.2004 194.797C75.2004 194.797 110.7 187.897 158.9 224.097C207.1 187.897 242.6 194.797 242.6 194.797L263.1 237.397C192.3 244.097 158.9 278.297 158.9 278.297Z" fill="#34A852"/>
<path opacity="0.2" d="M168 257.594C181.333 247.76 223 226 251 229" stroke="#863ED5" stroke-width="3" stroke-linecap="round"/>
<path opacity="0.2" d="M168 230C179.833 220.735 210.6 202.581 239 204.088" stroke="#863ED5" stroke-width="3" stroke-linecap="round"/>
<path opacity="0.2" d="M168 244C180.833 234.022 214.2 214.472 245 216.095" stroke="#863ED5" stroke-width="3" stroke-linecap="round"/>
<path opacity="0.2" d="M151 257.594C137.667 247.76 96 226 68 229" stroke="#863ED5" stroke-width="3" stroke-linecap="round"/>
<path opacity="0.2" d="M151 230C139.167 220.735 108.4 202.581 80 204.088" stroke="#863ED5" stroke-width="3" stroke-linecap="round"/>
<path opacity="0.2" d="M151 244C138.167 234.022 104.8 214.472 74 216.095" stroke="#863ED5" stroke-width="3" stroke-linecap="round"/>
<path d="M158.9 216.703C158.9 216.703 159.9 213.203 161.8 214.203C161.8 214.203 160.6 270.903 162.6 293.003C163.1 298.503 167.9 306.003 169.8 308.803H167.3L166.6 311.103C166.6 311.103 159.2 298.603 158.9 293.703C157.4 271.703 158.2 222.003 158.9 216.703Z" fill="#54DAF5"/>
</g>
<defs>
<clipPath id="clip0_1565_943">
<rect width="314" height="365" fill="white"/>
</clipPath>
</defs>
</svg>
